<svg width="302" height="28" viewBox="0 0 302 28" fill="none" xmlns="http://www.w3.org/2000/svg">
<path d="M41.6504 1H4.25203C2.45598 1 1 2.41098 1 4.15152V23.8485C1 25.589 2.45598 27 4.25203 27H41.6504C43.4465 27 44.9024 25.589 44.9024 23.8485V4.15152C44.9024 2.41098 43.4465 1 41.6504 1Z" fill="#F3F3F3" stroke="#E4E4E4" stroke-width="2"/>
<path fill-rule="evenodd" clip-rule="evenodd" d="M26.385 9.04317C27.1887 8.86582 28.0295 8.83661 28.8489 8.93321C29.3775 8.99648 29.896 9.11966 30.3965 9.28453C30.2426 9.93005 30.0894 10.5756 29.9345 11.2208C29.3032 10.9601 28.6146 10.8087 27.9198 10.7902C27.5706 10.783 27.2133 10.8025 26.8832 10.9132C26.6843 10.9803 26.494 11.0849 26.3658 11.2402C26.2581 11.3691 26.2034 11.5391 26.2449 11.6985C26.2812 11.8422 26.3871 11.9625 26.5063 12.06C26.7182 12.2298 26.968 12.3549 27.2156 12.4775C27.7717 12.746 28.3467 12.9935 28.8452 13.3465C29.2709 13.6421 29.6333 14.0329 29.7962 14.5002C29.9291 14.8696 29.9352 15.2669 29.8733 15.6484C29.7994 16.1034 29.5994 16.5422 29.2884 16.9076C28.923 17.342 28.4164 17.6677 27.8665 17.8879C27.2308 18.1435 26.5378 18.2666 25.8456 18.3078C25.0651 18.3511 24.2798 18.2856 23.5148 18.1433C23.1408 18.0693 22.7681 17.9795 22.4185 17.8368C22.5772 17.1701 22.7352 16.5035 22.8936 15.8368C23.2152 15.9722 23.5391 16.1058 23.8787 16.2007C24.2679 16.3119 24.6725 16.3774 25.0798 16.4014C25.4523 16.421 25.8319 16.4271 26.1967 16.3458C26.4842 16.2827 26.775 16.1737 26.9736 15.9689C27.1653 15.7747 27.2192 15.4781 27.0978 15.2413C26.9994 15.0562 26.8187 14.9213 26.636 14.8055C26.3591 14.6334 26.0572 14.4979 25.7563 14.3639C25.1607 14.0981 24.5751 13.7838 24.1274 13.3343C23.7955 13.0034 23.5612 12.5848 23.5142 12.1378C23.4664 11.6631 23.5638 11.1765 23.796 10.7478C23.9699 10.4244 24.2205 10.1365 24.5175 9.89687C25.0433 9.47097 25.7031 9.19761 26.385 9.04317Z" fill="#243881"/>
<path fill-rule="evenodd" clip-rule="evenodd" d="M6.75349 9.04692C8.22841 9.04589 9.70317 9.04662 11.1779 9.04633C11.3049 9.04574 11.4325 9.05602 11.5549 9.08758C11.8156 9.15115 12.0493 9.2984 12.2061 9.49645C12.3236 9.64296 12.3999 9.81444 12.4366 9.99164C12.6776 11.1437 12.9185 12.2957 13.1595 13.4477C13.2871 14.0518 13.4096 14.657 13.5408 15.2605C14.453 13.1899 15.3635 11.1185 16.2728 9.04692C17.1925 9.04515 18.1121 9.04618 19.0318 9.04633C17.613 12.0912 16.1948 15.1364 14.7754 18.1811C13.8513 18.1811 12.9273 18.1791 12.0033 18.1822C11.3111 15.7867 10.6256 13.3897 9.93618 10.9938C9.87417 10.7879 9.82587 10.572 9.69174 10.3921C9.55272 10.2067 9.32346 10.1038 9.10726 10.0072C8.57581 9.7795 8.01286 9.61786 7.44649 9.47722C7.19651 9.41673 6.94506 9.36124 6.69214 9.31117C6.71172 9.22294 6.73424 9.1353 6.75349 9.04692Z" fill="#192164"/>
<path fill-rule="evenodd" clip-rule="evenodd" d="M20.0285 9.59888C20.0732 9.41449 20.1146 9.22936 20.1615 9.04541C21.0361 9.04805 21.9108 9.04526 22.7854 9.04673C22.0611 12.0914 21.3373 15.1364 20.6134 18.1812C19.738 18.182 18.8626 18.1812 17.9872 18.1815C18.6681 15.3206 19.348 12.4598 20.0285 9.59888Z" fill="#28327B"/>
<path fill-rule="evenodd" clip-rule="evenodd" d="M33.7188 9.70818C33.8933 9.32486 34.3287 9.05297 34.7903 9.04739C35.552 9.04372 36.3137 9.04636 37.0752 9.04592C37.7826 12.0912 38.4889 15.1366 39.1956 18.182C38.3858 18.1826 37.576 18.1819 36.7663 18.1822C36.6586 17.7278 36.5539 17.2727 36.4473 16.818C35.3249 16.8174 34.2026 16.8182 33.0803 16.8174C32.8968 17.2717 32.7131 17.7259 32.5322 18.1809C31.613 18.1831 30.6937 18.1819 29.7745 18.1813C31.0891 15.3568 32.4033 12.5322 33.7188 9.70818ZM33.8357 14.9433C34.5614 14.9439 35.2872 14.9434 36.0128 14.9434C35.7476 13.8017 35.4833 12.6599 35.2181 11.5182C34.7549 12.6591 34.2965 13.8017 33.8357 14.9433Z" fill="#344490"/>
<path d="M92.8703 1H55.4719C53.6758 1 52.2198 2.41098 52.2198 4.15152V23.8485C52.2198 25.589 53.6758 27 55.4719 27H92.8703C94.6663 27 96.1223 25.589 96.1223 23.8485V4.15152C96.1223 2.41098 94.6663 1 92.8703 1Z" fill="#F2F2F2" stroke="#E4E4E4" stroke-width="2"/>
<path fill-rule="evenodd" clip-rule="evenodd" d="M87.2338 13.7975C87.2338 18.2541 83.5128 21.8669 78.9228 21.8669C74.3327 21.8669 70.6117 18.2541 70.6117 13.7975C70.6117 9.34083 74.3327 5.72803 78.9228 5.72803C83.5128 5.72803 87.2338 9.34083 87.2338 13.7975Z" fill="#F79F1A"/>
<path fill-rule="evenodd" clip-rule="evenodd" d="M76.9804 13.7975C76.9804 18.2541 73.2594 21.8669 68.6693 21.8669C64.0793 21.8669 60.3583 18.2541 60.3583 13.7975C60.3583 9.34083 64.0793 5.72803 68.6693 5.72803C73.2594 5.72803 76.9804 9.34083 76.9804 13.7975Z" fill="#EA001B"/>
<path fill-rule="evenodd" clip-rule="evenodd" d="M73.7961 7.44604C71.857 8.92329 70.6122 11.2189 70.6122 13.7976C70.6122 16.3763 71.857 18.6737 73.7961 20.1509C75.7353 18.6737 76.9801 16.3763 76.9801 13.7976C76.9801 11.2189 75.7353 8.92329 73.7961 7.44604Z" fill="#FF5F01"/>
<path fill-rule="evenodd" clip-rule="evenodd" d="M87.218 18.1873V17.7933H87.1404L87.0511 18.0643L86.9619 17.7933H86.8843V18.1873H86.939V17.8901L87.0227 18.1463H87.0795L87.1632 17.8895V18.1873H87.218ZM86.7265 18.1873V17.8606H86.826V17.794H86.5729V17.8606H86.6723V18.1873H86.7265Z" fill="#F79F1A"/>
<path d="M144.089 1H106.691C104.895 1 103.439 2.41098 103.439 4.15152V23.8485C103.439 25.589 104.895 27 106.691 27H144.089C145.886 27 147.342 25.589 147.342 23.8485V4.15152C147.342 2.41098 145.886 1 144.089 1Z" fill="#F2F2F2" stroke="#E4E4E4" stroke-width="2"/>
<path fill-rule="evenodd" clip-rule="evenodd" d="M130.977 15.5575H132.821C132.874 15.5575 132.997 15.5405 133.049 15.5405C133.401 15.4724 133.699 15.1661 133.699 14.7407C133.699 14.3323 133.401 14.026 133.049 13.941C132.997 13.9239 132.891 13.924 132.821 13.924H130.977V15.5575Z" fill="url(#paint0_linear_608_2812)"/>
<path fill-rule="evenodd" clip-rule="evenodd" d="M132.611 4.27637C130.855 4.27637 129.415 5.65467 129.415 7.37329V10.5893H133.928C134.033 10.5893 134.156 10.5893 134.244 10.6063C135.262 10.6574 136.017 11.1679 136.017 12.0527C136.017 12.7504 135.508 13.3459 134.56 13.465V13.4991C135.596 13.5671 136.386 14.1287 136.386 14.9965C136.386 15.9324 135.508 16.5449 134.349 16.5449H129.397V22.8409H134.086C135.842 22.8409 137.281 21.4626 137.281 19.744V4.27637H132.611Z" fill="url(#paint1_linear_608_2812)"/>
<path fill-rule="evenodd" clip-rule="evenodd" d="M133.471 12.2566C133.471 11.8483 133.172 11.576 132.821 11.525C132.786 11.525 132.698 11.5079 132.646 11.5079H130.977V13.0053H132.646C132.698 13.0053 132.804 13.0053 132.821 12.9883C133.172 12.9373 133.471 12.665 133.471 12.2566Z" fill="url(#paint2_linear_608_2812)"/>
<path fill-rule="evenodd" clip-rule="evenodd" d="M114.946 4.27637C113.19 4.27637 111.751 5.65467 111.751 7.37329V15.0135C112.646 15.4389 113.577 15.7112 114.507 15.7112C115.614 15.7112 116.211 15.0645 116.211 14.1797V10.5723H118.95V14.1627C118.95 15.558 118.054 16.6981 115.017 16.6981C113.173 16.6981 111.733 16.3067 111.733 16.3067V22.8239H116.421C118.177 22.8239 119.617 21.4456 119.617 19.7269V4.27637H114.946Z" fill="url(#paint3_linear_608_2812)"/>
<path fill-rule="evenodd" clip-rule="evenodd" d="M123.778 4.27637C122.022 4.27637 120.582 5.65467 120.582 7.37329V11.4231C121.39 10.7595 122.795 10.3341 125.06 10.4362C126.271 10.4872 127.571 10.8105 127.571 10.8105V12.1208C126.921 11.7975 126.149 11.5082 125.148 11.4401C123.427 11.321 122.391 12.1378 122.391 13.5671C122.391 15.0135 123.427 15.8303 125.148 15.6942C126.149 15.6261 126.921 15.3198 127.571 15.0135V16.3237C127.571 16.3237 126.289 16.6471 125.06 16.6981C122.795 16.8002 121.39 16.3748 120.582 15.7112V22.8579H125.271C127.026 22.8579 128.466 21.4796 128.466 19.761V4.27637H123.778Z" fill="url(#paint4_linear_608_2812)"/>
<path d="M195.309 1H157.91C156.114 1 154.658 2.41098 154.658 4.15152V23.8485C154.658 25.589 156.114 27 157.91 27H195.309C197.105 27 198.561 25.589 198.561 23.8485V4.15152C198.561 2.41098 197.105 1 195.309 1Z" fill="#F3F3F3" stroke="#E4E4E4" stroke-width="2"/>
<path fill-rule="evenodd" clip-rule="evenodd" d="M170.104 3.36438H184.74V11.242C184.197 11.2512 183.653 11.2432 183.11 11.246V13.6068H168.48V4.93915H170.104V3.36438ZM170.918 4.15217C170.918 4.41363 170.918 4.67529 170.918 4.93675C173.923 4.93595 176.928 4.93655 179.933 4.93635C180.992 4.94015 182.05 4.94075 183.108 4.94035C183.108 6.77859 183.111 8.61682 183.11 10.4551C183.38 10.4555 183.651 10.4555 183.921 10.4551C183.922 8.35476 183.92 6.25446 183.922 4.15417C183.067 4.14977 182.212 4.15357 181.357 4.15217C177.877 4.15217 174.398 4.15237 170.918 4.15217ZM169.293 5.72834C169.293 6.20845 169.292 6.68877 169.293 7.16908C169.978 6.93562 170.537 6.3909 170.78 5.72834C170.284 5.72774 169.788 5.72794 169.293 5.72834ZM171.627 5.72894C171.493 6.23526 171.225 6.70697 170.857 7.08886C170.438 7.52596 169.889 7.84324 169.293 7.99227C169.293 8.84648 169.292 9.70048 169.293 10.5547C169.809 10.6845 170.292 10.939 170.683 11.2901C171.141 11.6978 171.473 12.2353 171.628 12.8186C174.406 12.819 177.183 12.8192 179.96 12.8186C180.093 12.3219 180.352 11.8576 180.711 11.4799C181.132 11.0314 181.69 10.7063 182.296 10.5547C182.296 9.70068 182.296 8.84668 182.296 7.99268C181.837 7.87645 181.405 7.6642 181.04 7.37073C180.515 6.95163 180.13 6.36889 179.961 5.72934C177.183 5.72694 174.405 5.72774 171.627 5.72894ZM180.809 5.72794C181.05 6.3905 181.61 6.93703 182.296 7.16768C182.296 6.68797 182.296 6.20805 182.296 5.72834C181.8 5.72754 181.305 5.72834 180.809 5.72794ZM169.293 12.8188C169.788 12.8186 170.284 12.8198 170.78 12.8182C170.537 12.1553 169.977 11.6121 169.293 11.3771C169.292 11.8578 169.293 12.3383 169.293 12.8188ZM180.808 12.8188C181.304 12.819 181.8 12.819 182.296 12.8186C182.296 12.3391 182.296 11.8594 182.296 11.3799C181.61 11.6091 181.051 12.1575 180.808 12.8188Z" fill="#979797"/>
<path fill-rule="evenodd" clip-rule="evenodd" d="M175.54 6.52918C176.027 6.46976 176.53 6.58599 176.944 6.83985C177.414 7.12332 177.766 7.56622 177.982 8.05554C178.316 8.82452 178.315 9.72374 177.98 10.4921C177.839 10.8068 177.645 11.1005 177.398 11.3469C177.104 11.6398 176.731 11.8622 176.321 11.9637C175.877 12.0755 175.397 12.0409 174.975 11.8686C174.525 11.688 174.145 11.3627 173.877 10.9716C173.205 10.0064 173.182 8.66168 173.811 7.67125C174.078 7.24475 174.469 6.88506 174.945 6.68622C175.134 6.6066 175.335 6.55318 175.54 6.52918ZM175.609 7.31496C175.32 7.35738 175.051 7.49401 174.837 7.68525C174.54 7.94952 174.341 8.3078 174.243 8.68509C174.115 9.19041 174.153 9.73814 174.37 10.2157C174.516 10.5355 174.745 10.8254 175.05 11.0174C175.29 11.1699 175.58 11.2567 175.869 11.2385C176.217 11.2189 176.546 11.0547 176.792 10.8194C177.12 10.5083 177.319 10.0836 177.388 9.64712C177.466 9.1562 177.393 8.63848 177.154 8.19717C176.991 7.8967 176.747 7.63104 176.438 7.4672C176.187 7.33317 175.893 7.27275 175.609 7.31496Z" fill="#979797"/>
<path fill-rule="evenodd" clip-rule="evenodd" d="M170.918 4.15194C174.398 4.15214 177.877 4.15194 181.357 4.15194C182.212 4.15334 183.067 4.14953 183.922 4.15394C183.92 6.25423 183.922 8.35453 183.921 10.4548C183.65 10.4552 183.38 10.4552 183.11 10.4548C183.111 8.6166 183.108 6.77836 183.108 4.94012C182.05 4.94052 180.991 4.93992 179.933 4.93612C176.928 4.93632 173.923 4.93572 170.918 4.93652C170.918 4.67506 170.918 4.4134 170.918 4.15194Z" fill="#F2F2F2"/>
<path fill-rule="evenodd" clip-rule="evenodd" d="M169.292 5.72511C169.788 5.72471 170.284 5.72451 170.78 5.72511C170.537 6.38767 169.977 6.9324 169.293 7.16585C169.292 6.68554 169.293 6.20522 169.292 5.72511Z" fill="#F2F2F2"/>
<path fill-rule="evenodd" clip-rule="evenodd" d="M171.627 5.72589C174.405 5.72469 177.183 5.72389 179.961 5.72629C180.129 6.36584 180.514 6.94858 181.04 7.36768C181.405 7.66115 181.837 7.8734 182.295 7.98962C182.295 8.84363 182.296 9.69763 182.295 10.5516C181.689 10.7033 181.132 11.0283 180.71 11.4769C180.352 11.8545 180.093 12.3189 179.96 12.8156C177.183 12.8162 174.405 12.816 171.628 12.8156C171.473 12.2322 171.141 11.6947 170.683 11.287C170.291 10.9359 169.809 10.6815 169.293 10.5516C169.292 9.69743 169.292 8.84343 169.292 7.98922C169.888 7.84019 170.438 7.52291 170.857 7.08581C171.225 6.70392 171.493 6.23221 171.627 5.72589ZM175.54 6.52828C175.335 6.55228 175.134 6.60569 174.945 6.68531C174.469 6.88416 174.077 7.24385 173.81 7.67035C173.182 8.66078 173.205 10.0055 173.877 10.9707C174.145 11.3618 174.525 11.6871 174.974 11.8677C175.397 12.04 175.877 12.0746 176.321 11.9628C176.731 11.8613 177.104 11.6389 177.398 11.346C177.645 11.0996 177.839 10.8059 177.98 10.4912C178.315 9.72284 178.316 8.82362 177.982 8.05464C177.765 7.56532 177.414 7.12242 176.944 6.83895C176.53 6.58509 176.027 6.46886 175.54 6.52828Z" fill="#F2F2F2"/>
<path fill-rule="evenodd" clip-rule="evenodd" d="M180.809 5.72473C181.304 5.72513 181.8 5.72433 182.295 5.72513C182.295 6.20485 182.295 6.68476 182.295 7.16447C181.61 6.93382 181.05 6.38729 180.809 5.72473Z" fill="#F2F2F2"/>
<path fill-rule="evenodd" clip-rule="evenodd" d="M175.609 7.31504C175.893 7.27283 176.187 7.33325 176.438 7.46728C176.747 7.63112 176.991 7.89678 177.154 8.19725C177.393 8.63856 177.466 9.15628 177.388 9.6472C177.319 10.0837 177.12 10.5084 176.792 10.8195C176.546 11.0547 176.217 11.219 175.869 11.2386C175.58 11.2568 175.29 11.17 175.05 11.0175C174.745 10.8255 174.516 10.5356 174.37 10.2157C174.153 9.73822 174.115 9.19049 174.243 8.68517C174.341 8.30788 174.54 7.94959 174.837 7.68533C175.051 7.49409 175.32 7.35745 175.609 7.31504Z" fill="#F2F2F2"/>
<path fill-rule="evenodd" clip-rule="evenodd" d="M169.293 12.8178C169.293 12.3373 169.292 11.8568 169.293 11.3761C169.977 11.6112 170.537 12.1543 170.78 12.8172C170.284 12.8188 169.788 12.8176 169.293 12.8178Z" fill="#F2F2F2"/>
<path fill-rule="evenodd" clip-rule="evenodd" d="M180.808 12.8182C181.051 12.1569 181.609 11.6085 182.295 11.3793C182.295 11.8588 182.295 12.3385 182.295 12.818C181.8 12.8184 181.304 12.8184 180.808 12.8182Z" fill="#F2F2F2"/>
<path fill-rule="evenodd" clip-rule="evenodd" d="M162.173 23.0596V18.6243H163.835V18.0634H159.869V18.6243H161.53V23.0596H162.173ZM165.471 23.0596V18.0634H164.828V23.0596H165.471ZM169.98 22.4986H167.429V20.7813H169.848V20.2273H167.429V18.6243H169.98V18.0634H166.786V23.0596H169.98V22.4986ZM168.036 16.7996L166.986 17.6063H167.779L168.358 17.1389H168.415L168.994 17.6063H169.787L168.737 16.7996H168.036ZM169.937 16.6438L169.151 15.8059H168.379L169.258 16.6438H169.937ZM171.781 23.0596V19.1852H171.838L174.635 23.0596H175.26V18.0634H174.625V21.9516H174.567L171.77 18.0634H171.145V23.0596H171.781ZM183.721 23.0596V18.0634H182.974L181.209 22.1974H181.152L179.387 18.0634H178.64V23.0596H179.241V19.244H179.283L180.909 23.0249H181.452L183.078 19.244H183.121V23.0596H183.721ZM188.387 23.0596H189.062L187.161 18.0634H186.525L184.625 23.0596H185.3L185.818 21.6296H187.869L187.947 21.846C188 21.9903 188.06 22.1565 188.128 22.3446C188.196 22.5327 188.256 22.6989 188.308 22.8432L188.387 23.0596ZM186.815 18.8701H186.872L187.679 21.0999H186.007L186.09 20.8748C186.144 20.7248 186.212 20.539 186.291 20.3174L186.531 19.6526C186.611 19.431 186.678 19.2452 186.733 19.0952L186.815 18.8701ZM185.543 16.5746C185.543 16.8839 185.659 17.1331 185.891 17.3224C186.124 17.5117 186.441 17.6063 186.843 17.6063C187.248 17.6063 187.566 17.5117 187.797 17.3224C188.028 17.1331 188.144 16.8839 188.144 16.5746H187.594C187.594 16.7569 187.527 16.9023 187.394 17.0108C187.26 17.1193 187.077 17.1735 186.843 17.1735C186.612 17.1735 186.43 17.1193 186.295 17.0108C186.16 16.9023 186.093 16.7569 186.093 16.5746H185.543ZM186.843 24.4514C186.963 24.4514 187.064 24.4104 187.149 24.3285C187.233 24.2466 187.276 24.1479 187.276 24.0325C187.276 23.9171 187.233 23.8184 187.149 23.7364C187.064 23.6545 186.963 23.6135 186.843 23.6135C186.724 23.6135 186.623 23.6545 186.538 23.7364C186.453 23.8184 186.411 23.9171 186.411 24.0325C186.411 24.1479 186.453 24.2466 186.538 24.3285C186.623 24.4104 186.724 24.4514 186.843 24.4514ZM191.949 23.0596V18.6243H193.61V18.0634H189.645V18.6243H191.306V23.0596H191.949Z" fill="#333333"/>
<path d="M246.529 1H209.13C207.334 1 205.878 2.41098 205.878 4.15152V23.8485C205.878 25.589 207.334 27 209.13 27H246.529C248.325 27 249.781 25.589 249.781 23.8485V4.15152C249.781 2.41098 248.325 1 246.529 1Z" fill="#F3F3F3" stroke="#E4E4E4" stroke-width="2"/>
<path d="M248.968 5.72607H206.691V8.87759H248.968V5.72607Z" fill="#D4D4D4"/>
<path d="M211.16 10.3116V15.1822H210.552V10.3116H211.16Z" fill="#333333"/>
<path d="M216.366 10.3116V15.1822H215.777L213.038 11.358H212.989V15.1822H212.381V10.3116H212.97L215.718 14.1453H215.767V10.3116H216.366Z" fill="#333333"/>
<path d="M217.309 10.8348V10.3116H221.078V10.8348H219.498V15.1822H218.889V10.8348H217.309Z" fill="#333333"/>
<path d="M222.018 15.1822V10.3116H225.051V10.8348H222.626V12.4806H224.894V13.0038H222.626V14.659H225.09V15.1822H222.018Z" fill="#333333"/>
<path d="M226.148 15.1822V10.3116H227.846C228.239 10.3116 228.561 10.3766 228.813 10.5067C229.065 10.6351 229.251 10.8119 229.373 11.037C229.494 11.2621 229.554 11.5182 229.554 11.8051C229.554 12.0921 229.494 12.3466 229.373 12.5685C229.251 12.7905 229.066 12.9649 228.815 13.0917C228.565 13.217 228.245 13.2796 227.856 13.2796H226.482V12.7469H227.836C228.105 12.7469 228.321 12.7089 228.484 12.6328C228.649 12.5567 228.769 12.4488 228.842 12.3093C228.918 12.1682 228.955 12.0002 228.955 11.8051C228.955 11.6101 228.918 11.4397 228.842 11.2938C228.767 11.148 228.647 11.0354 228.482 10.9561C228.316 10.8753 228.098 10.8348 227.826 10.8348H226.757V15.1822H226.148ZM228.514 12.9942L229.75 15.1822H229.044L227.826 12.9942H228.514Z" fill="#333333"/>
<path d="M234.554 10.3116V15.1822H233.965L231.226 11.358H231.177V15.1822H230.568V10.3116H231.157L233.906 14.1453H233.955V10.3116H234.554Z" fill="#333333"/>
<path d="M235.771 15.1822V10.3116H238.805V10.8348H236.38V12.4806H238.648V13.0038H236.38V14.659H238.844V15.1822H235.771Z" fill="#333333"/>
<path d="M239.627 10.8348V10.3116H243.396V10.8348H241.816V15.1822H241.207V10.8348H239.627Z" fill="#333333"/>
<path d="M210.552 23.061V18.1904H212.309C212.659 18.1904 212.948 18.2491 213.175 18.3664C213.403 18.4822 213.572 18.6383 213.683 18.8349C213.794 19.0299 213.85 19.2463 213.85 19.4842C213.85 19.6934 213.812 19.8663 213.735 20.0026C213.66 20.139 213.56 20.2468 213.435 20.326C213.313 20.4053 213.179 20.464 213.035 20.502V20.5496C213.189 20.5591 213.344 20.6114 213.499 20.7066C213.655 20.8017 213.785 20.938 213.889 21.1156C213.994 21.2932 214.046 21.5104 214.046 21.7672C214.046 22.0114 213.989 22.231 213.875 22.426C213.76 22.621 213.579 22.7756 213.332 22.8897C213.085 23.0039 212.764 23.061 212.368 23.061H210.552ZM211.16 22.5378H212.368C212.765 22.5378 213.048 22.4632 213.215 22.3142C213.383 22.1636 213.467 21.9813 213.467 21.7672C213.467 21.6023 213.424 21.4501 213.337 21.3106C213.251 21.1695 213.127 21.0569 212.967 20.9729C212.806 20.8873 212.617 20.8445 212.397 20.8445H211.16V22.5378ZM211.16 20.3308H212.289C212.473 20.3308 212.638 20.2959 212.785 20.2262C212.934 20.1564 213.052 20.0581 213.138 19.9313C213.227 19.8044 213.271 19.6554 213.271 19.4842C213.271 19.2701 213.194 19.0886 213.04 18.9396C212.886 18.7889 212.643 18.7136 212.309 18.7136H211.16V20.3308Z" fill="#333333"/>
<path d="M215.253 23.061H214.615L216.46 18.1904H217.088L218.934 23.061H218.296L216.794 18.961H216.754L215.253 23.061ZM215.488 21.1584H218.06V21.6816H215.488V21.1584Z" fill="#333333"/>
<path d="M223.702 18.1904V23.061H223.113L220.374 19.2368H220.325V23.061H219.716V18.1904H220.305L223.054 22.0241H223.103V18.1904H223.702Z" fill="#333333"/>
<path d="M224.92 23.061V18.1904H225.528V20.6067H225.587L227.845 18.1904H228.64L226.53 20.3879L228.64 23.061H227.904L226.156 20.7969L225.528 21.4818V23.061H224.92Z" fill="#333333"/>
<path d="M230.036 18.1904V23.061H229.428V18.1904H230.036Z" fill="#333333"/>
<path d="M235.242 18.1904V23.061H234.653L231.914 19.2368H231.865V23.061H231.257V18.1904H231.846L234.594 22.0241H234.643V18.1904H235.242Z" fill="#333333"/>
<path d="M239.895 19.7125C239.841 19.5523 239.77 19.4089 239.682 19.282C239.595 19.1536 239.491 19.0442 239.37 18.9538C239.251 18.8635 239.115 18.7945 238.963 18.7469C238.811 18.6994 238.644 18.6756 238.462 18.6756C238.165 18.6756 237.894 18.7501 237.65 18.8991C237.406 19.0482 237.212 19.2678 237.068 19.5579C236.924 19.848 236.852 20.204 236.852 20.6257C236.852 21.0474 236.925 21.4034 237.071 21.6935C237.216 21.9836 237.414 22.2032 237.662 22.3523C237.911 22.5013 238.191 22.5758 238.502 22.5758C238.789 22.5758 239.043 22.5164 239.262 22.3974C239.483 22.2769 239.655 22.1073 239.778 21.8885C239.902 21.6681 239.964 21.4089 239.964 21.1108L240.151 21.1489H238.639V20.6257H240.553V21.1489C240.553 21.55 240.465 21.8988 240.288 22.1953C240.113 22.4918 239.871 22.7217 239.562 22.885C239.254 23.0467 238.901 23.1275 238.502 23.1275C238.057 23.1275 237.666 23.0261 237.328 22.8231C236.993 22.6202 236.731 22.3316 236.543 21.9575C236.357 21.5833 236.263 21.1394 236.263 20.6257C236.263 20.2404 236.317 19.894 236.423 19.5864C236.531 19.2773 236.683 19.0141 236.879 18.7969C237.076 18.5797 237.308 18.4132 237.576 18.2975C237.845 18.1817 238.14 18.1238 238.462 18.1238C238.727 18.1238 238.974 18.1627 239.203 18.2404C239.434 18.3165 239.639 18.4251 239.819 18.5662C240.001 18.7057 240.152 18.873 240.273 19.068C240.394 19.2614 240.478 19.4762 240.524 19.7125H239.895Z" fill="#333333"/>
<path d="M297.748 1H260.35C258.554 1 257.098 2.41098 257.098 4.15152V23.8485C257.098 25.589 258.554 27 260.35 27H297.748C299.544 27 301 25.589 301 23.8485V4.15152C301 2.41098 299.544 1 297.748 1Z" fill="#F3F3F3" stroke="#E4E4E4" stroke-width="2"/>
<path fill-rule="evenodd" clip-rule="evenodd" d="M263.573 13.606V8.18514H265.603V7.49959H260.756V8.18514H262.787V13.606H263.573ZM267.603 8.17668H269.118C269.526 8.17668 269.845 8.27965 270.075 8.4856C270.305 8.69154 270.42 8.97789 270.42 9.34465C270.42 9.71987 270.31 10.0083 270.09 10.21C269.87 10.4118 269.558 10.5126 269.153 10.5126H267.603V8.17668ZM267.603 11.1897H269.153L270.503 13.606H271.424L269.965 11.0712C270.361 10.9499 270.671 10.7341 270.896 10.4237C271.12 10.1134 271.232 9.74526 271.232 9.31926C271.232 8.76912 271.049 8.32832 270.684 7.99683C270.318 7.66534 269.832 7.49959 269.223 7.49959H266.817V13.606H267.603V11.1897ZM276.756 13.606H277.581L275.258 7.49959H274.481L272.158 13.606H272.983L273.616 11.8583H276.123L276.219 12.1228C276.283 12.2991 276.356 12.5023 276.439 12.7322C276.522 12.9621 276.596 13.1652 276.66 13.3416L276.756 13.606ZM274.834 8.4856H274.904L275.891 11.2109H273.847L273.948 10.9358C274.015 10.7524 274.097 10.5253 274.195 10.2545L274.487 9.44198C274.585 9.17114 274.667 8.94404 274.734 8.76066L274.834 8.4856ZM274.109 6.07349C274.229 6.01142 274.389 5.98039 274.59 5.98039C274.875 5.98039 275.018 6.08336 275.018 6.28931C275.018 6.49525 274.859 6.64336 274.542 6.73364L274.861 7.14413C275.093 7.07077 275.284 6.94946 275.433 6.78019C275.581 6.61092 275.655 6.43037 275.655 6.23853C275.655 6.00437 275.569 5.81888 275.395 5.68205C275.222 5.54522 274.984 5.47681 274.682 5.47681C274.58 5.47681 274.476 5.48456 274.369 5.50008C274.263 5.5156 274.176 5.53746 274.109 5.56567V6.07349ZM265.884 20.1261V19.449H263.561V20.0568H265.173V20.1915C265.173 20.6608 265.015 21.0404 264.699 21.3302C264.382 21.62 263.968 21.7649 263.454 21.7649C262.88 21.7649 262.425 21.5616 262.091 21.1551C261.756 20.7486 261.588 20.1953 261.588 19.4951C261.588 18.8052 261.757 18.2551 262.095 17.8447C262.432 17.4344 262.884 17.2292 263.45 17.2292C263.876 17.2292 264.231 17.3267 264.514 17.5216C264.797 17.7165 265 18.0012 265.122 18.3756H265.848C265.745 17.8242 265.478 17.3889 265.048 17.0696C264.618 16.7502 264.085 16.5906 263.45 16.5906C262.667 16.5906 262.038 16.8554 261.565 17.385C261.091 17.9146 260.854 18.618 260.854 19.4951C260.854 20.3825 261.089 21.0891 261.559 21.6149C262.028 22.1406 262.659 22.4035 263.45 22.4035C264.183 22.4035 264.772 22.1951 265.217 21.7784C265.661 21.3616 265.884 20.8108 265.884 20.1261ZM269.556 16.5906C268.746 16.5906 268.105 16.8516 267.632 17.3735C267.16 17.8954 266.924 18.6026 266.924 19.4951C266.924 20.3825 267.157 21.0891 267.624 21.6149C268.092 22.1406 268.735 22.4035 269.556 22.4035C270.374 22.4035 271.015 22.1406 271.479 21.6149C271.944 21.0891 272.176 20.3825 272.176 19.4951C272.176 18.6052 271.943 17.8986 271.477 17.3754C271.011 16.8522 270.371 16.5906 269.556 16.5906ZM269.556 17.2292C270.141 17.2292 270.601 17.4331 270.937 17.8409C271.273 18.2487 271.441 18.8001 271.441 19.4951C271.441 20.1825 271.274 20.7326 270.939 21.1455C270.604 21.5584 270.143 21.7649 269.556 21.7649C268.96 21.7649 268.495 21.5584 268.16 21.1455C267.826 20.7326 267.658 20.1825 267.658 19.4951C267.658 18.8001 267.829 18.2487 268.17 17.8409C268.512 17.4331 268.974 17.2292 269.556 17.2292ZM269.949 16.2136L271.267 15.0672H270.37L269.139 16.2136H269.949ZM273.414 16.7214V22.2727H274.129V20.2915H275.57C276.107 20.2915 276.549 20.1254 276.894 19.7933C277.239 19.4611 277.412 19.0361 277.412 18.518C277.412 17.9896 277.242 17.5581 276.902 17.2234C276.562 16.8887 276.12 16.7214 275.578 16.7214H273.414ZM274.129 17.3369H275.391C275.807 17.3369 276.125 17.4382 276.346 17.6408C276.567 17.8435 276.678 18.1358 276.678 18.518C276.678 18.8847 276.565 19.1694 276.34 19.372C276.115 19.5746 275.799 19.6759 275.391 19.6759H274.129V17.3369Z" fill="#333333"/>
<path fill-rule="evenodd" clip-rule="evenodd" d="M279.582 14.1089C279.582 11.7452 280.119 9.86379 281.192 8.46451C282.265 7.06523 283.66 6.3656 285.378 6.3656C287.114 6.3656 288.509 7.06523 289.563 8.46451C290.617 9.86379 291.153 11.7452 291.173 14.1089C291.173 16.4536 290.641 18.3398 289.578 19.7674C288.514 21.1951 287.114 21.9089 285.378 21.9089C283.563 21.9089 282.143 21.1714 281.119 19.6965C280.095 18.2216 279.582 16.3591 279.582 14.1089ZM288.304 14.1372C288.304 10.4121 287.329 8.5496 285.378 8.5496C283.426 8.5496 282.451 10.4121 282.451 14.1372C282.451 17.8624 283.426 19.7249 285.378 19.7249C287.329 19.7249 288.304 17.8624 288.304 14.1372Z" fill="#D0011B"/>
<path fill-rule="evenodd" clip-rule="evenodd" d="M293.888 8.97128C293.888 8.59273 293.777 8.28747 293.556 8.05549C293.334 7.82351 293.042 7.70752 292.68 7.70752C292.318 7.70752 292.026 7.82408 291.805 8.05722C291.583 8.29035 291.473 8.59504 291.473 8.97128C291.473 9.34753 291.584 9.65221 291.807 9.88534C292.029 10.1185 292.321 10.235 292.68 10.235C293.042 10.235 293.334 10.1185 293.556 9.88534C293.777 9.65221 293.888 9.34753 293.888 8.97128ZM292.68 9.58758C292.554 9.58758 292.454 9.53161 292.38 9.41966C292.306 9.30771 292.269 9.1571 292.269 8.96782C292.269 8.77623 292.306 8.62562 292.38 8.51598C292.454 8.40634 292.554 8.35152 292.68 8.35152C292.809 8.35152 292.909 8.40576 292.98 8.51425C293.052 8.62274 293.088 8.77393 293.088 8.96782C293.088 9.1571 293.051 9.30771 292.979 9.41966C292.906 9.53161 292.806 9.58758 292.68 9.58758ZM293.048 12.818L294.563 10.4601L296.542 7.82178H295.538L293.988 10.2004L292.041 12.818H293.048ZM297.086 11.665C297.086 11.2888 296.975 10.9846 296.753 10.7527C296.532 10.5207 296.24 10.4047 295.878 10.4047C295.518 10.4047 295.228 10.5207 295.006 10.7527C294.785 10.9846 294.674 11.2888 294.674 11.665C294.674 12.0436 294.785 12.3494 295.006 12.5825C295.228 12.8157 295.518 12.9322 295.878 12.9322C296.24 12.9322 296.532 12.8157 296.753 12.5825C296.975 12.3494 297.086 12.0436 297.086 11.665ZM295.878 12.2848C295.752 12.2848 295.652 12.2288 295.578 12.1168C295.504 12.0049 295.467 11.8543 295.467 11.665C295.467 11.4734 295.504 11.3228 295.578 11.2132C295.652 11.1035 295.752 11.0487 295.878 11.0487C296.007 11.0487 296.107 11.1029 296.18 11.2114C296.252 11.3199 296.289 11.4711 296.289 11.665C296.289 11.8543 296.252 12.0049 296.178 12.1168C296.104 12.2288 296.004 12.2848 295.878 12.2848Z" fill="#D0011B"/>
<defs>
<linearGradient id="paint0_linear_608_2812" x1="129.411" y1="14.7424" x2="137.303" y2="14.7424" gradientUnits="userSpaceOnUse">
<stop stop-color="#007940"/>
<stop offset="0.2285" stop-color="#00873F"/>
<stop offset="0.7433" stop-color="#40A737"/>
<stop offset="1" stop-color="#5CB531"/>
</linearGradient>
<linearGradient id="paint1_linear_608_2812" x1="129.412" y1="13.5509" x2="137.303" y2="13.5509" gradientUnits="userSpaceOnUse">
<stop stop-color="#007940"/>
<stop offset="0.2285" stop-color="#00873F"/>
<stop offset="0.7433" stop-color="#40A737"/>
<stop offset="1" stop-color="#5CB531"/>
</linearGradient>
<linearGradient id="paint2_linear_608_2812" x1="129.411" y1="12.2541" x2="137.302" y2="12.2541" gradientUnits="userSpaceOnUse">
<stop stop-color="#007940"/>
<stop offset="0.2285" stop-color="#00873F"/>
<stop offset="0.7433" stop-color="#40A737"/>
<stop offset="1" stop-color="#5CB531"/>
</linearGradient>
<linearGradient id="paint3_linear_608_2812" x1="111.747" y1="13.5509" x2="119.759" y2="13.5509" gradientUnits="userSpaceOnUse">
<stop stop-color="#1F286F"/>
<stop offset="0.4751" stop-color="#004E94"/>
<stop offset="0.8261" stop-color="#0066B1"/>
<stop offset="1" stop-color="#006FBC"/>
</linearGradient>
<linearGradient id="paint4_linear_608_2812" x1="120.537" y1="13.5509" x2="128.319" y2="13.5509" gradientUnits="userSpaceOnUse">
<stop stop-color="#6C2C2F"/>
<stop offset="0.1735" stop-color="#882730"/>
<stop offset="0.5731" stop-color="#BE1833"/>
<stop offset="0.8585" stop-color="#DC0436"/>
<stop offset="1" stop-color="#E60039"/>
</linearGradient>
</defs>
</svg>
